<svg width="243" height="230" viewBox="0 0 243 230" fill="none" xmlns="http://www.w3.org/2000/svg">
<path d="M47.1638 93.8171C61.077 129.939 64.1033 144.795 78.9214 180.562C82.9824 190.364 82.428 190.837 91.5865 185.515C114.891 171.974 138.211 158.334 161.864 145.413C172.972 139.345 179.285 135.968 190.686 131.51C197.551 128.825 202.133 125.792 209.038 123.567C209.446 123.436 211.202 122.681 210.991 121.77C209.591 115.737 208.032 112.346 205.065 106.909C191.025 81.1789 186.56 71.5029 171.963 46.0844C169.194 41.2625 169.532 38.0499 163.884 40.8455C136.372 54.4631 133.345 55.7184 81.6839 80.1257C72.3721 84.525 72.602 84.1281 54.2549 91.0299C52.2944 91.7675 48.8497 92.5741 47.1638 93.8171ZM47.1638 93.8171C46.7913 94.0916 48.005 94.2245 48.4585 94.3161C52.4535 95.1231 64.1244 96.6517 66.4334 96.9583C85.3554 99.4712 105.247 99.1462 124.139 98.5547C126.198 98.4902 131.836 89.6843 132.336 88.9368C140.533 76.6887 146.09 69.389 155.193 57.8553C159.097 52.9079 161.587 48.782 163.374 42.987" stroke="black" stroke-width="10" stroke-linecap="round"/>
<path d="M47 70L37 66" stroke="black" stroke-opacity="0.25" stroke-width="2" stroke-linecap="square"/>
<path d="M20 88C13.9896 87.3945 7.99769 86.6713 2 86" stroke="black" stroke-opacity="0.25" stroke-width="2" stroke-linecap="square"/>
<path d="M26 113L5 118" stroke="black" stroke-opacity="0.25" stroke-width="2" stroke-linecap="square"/>
<path d="M195 145C195.769 148.172 196.895 150.984 198 154" stroke="black" stroke-opacity="0.25" stroke-width="2" stroke-linecap="square"/>
<path d="M225 132L235 138" stroke="black" stroke-opacity="0.25" stroke-width="2" stroke-linecap="square"/>
<path d="M224 98L241 88" stroke="black" stroke-opacity="0.25" stroke-width="2" stroke-linecap="square"/>
<path d="M160 23L162 2" stroke="black" stroke-opacity="0.25" stroke-width="2" stroke-linecap="square"/>
<path d="M68 206L59 228" stroke="black" stroke-opacity="0.25" stroke-width="2" stroke-linecap="square"/>
</svg>
